<?xml version="1.0" encoding="UTF-8" standalone="no"?>
<!-- Created for Inkscape (http://www.inkscape.org/) -->

<svg
   xmlns:dc="http://purl.org/dc/elements/1.1/"
   xmlns:cc="http://creativecommons.org/ns#"
   xmlns:rdf="http://www.w3.org/1999/02/22-rdf-syntax-ns#"
   xmlns:svg="http://www.w3.org/2000/svg"
   xmlns="http://www.w3.org/2000/svg"
   xmlns:sodipodi="http://sodipodi.sourceforge.net/DTD/sodipodi-0.dtd"
   xmlns:inkscape="http://www.inkscape.org/namespaces/inkscape"
   width="3200"
   height="800"
   id="svg2985"
   version="1.1"
   inkscape:version="0.48.1 r9760">
  <defs
     id="defs2987" />
  <sodipodi:namedview
     id="base"
     pagecolor="#ffffff"
     bordercolor="#666666"
     borderopacity="1.0"
     inkscape:pageopacity="0.0"
     inkscape:pageshadow="2"
     inkscape:zoom="0.35"
     inkscape:cx="1600"
     inkscape:cy="400"
     inkscape:document-units="px"
     inkscape:current-layer="layer1"
     showgrid="false"  />
  <metadata
     id="metadata2990">
    <rdf:RDF>
      <cc:Work
         rdf:about="">
        <dc:format>image/svg+xml</dc:format>
        <dc:type
           rdf:resource="http://purl.org/dc/dcmitype/StillImage" />
        <dc:title />
      </cc:Work>
    </rdf:RDF>
  </metadata>
  <g
     inkscape:label="Layer 1"
     inkscape:groupmode="layer"
     id="layer1"> 
     <g>
<path style="fill:none;stroke:black;stroke-width:2px;stroke-linejoin:round;stroke-linecap:round;" d="M 
1616.5842 763.0818
1627.0815 746.173
1643.5757 732.8832
1640.7574 711.60394
1654.5432 699.3325
1668.6697 685.8317
1658.1008 722.2185
1693.3704 719.5609
1714.2393 739.5752
1702.9321 753.2993
1696.2792 736.17914
1686.1505 750.33777
1693.2292 767.88153
1683.9752 783.94086
1701.723 784.30225
1720.1765 784.92334
1710.9766 769.7846
1720.7058 755.8527
1731.3596 742.19434
1728.2949 726.73987
1747.1643 729.8105
1747.0182 745.2304
1738.04 758.13446
1729.1309 771.2075
1739.1122 784.8451
1748.187 771.43823
1756.7806 757.9792
1766.7682 770.76904
1757.8524 784.6345
1775.9263 784.4965
1784.0883 769.7827
1793.2249 784.2427
1809.6462 784.34955
1826.2407 784.22363
1842.6212 784.2018
1851.7446 768.97876
1858.3618 784.2248
1873.4984 784.07336
1868.6282 769.0786
1886.0918 770.9054
1890.5985 757.56506
1904.9261 768.999
1887.9358 785.07214
1901.9344 783.9332
1916.8082 784.3278
1924.8182 772.19867
1933.9357 785.9995
1954.4647 785.74677
1972.4889 782.92114
1990.2593 786.09564
1957.9471 770.0732
1942.3622 775.8259
1939.2322 760.7241
1918.5571 758.9214
1903.3325 751.4543
1886.081 740.5425
1868.501 739.3484
1875.6106 754.73724
1859.2136 754.00214
1848.9889 740.89685
1856.1343 728.20496
1839.0647 723.69604
1832.4922 738.9927
1821.2275 724.7312
1804.2933 722.2834
1798.7007 738.9918
1815.3203 739.15393
1808.5215 754.2368
1825.4036 754.0636
1841.8109 754.7404
1834.8297 769.3556
1818.018 769.1616
1800.9242 769.2224
1791.391 754.3074
1774.1667 755.6508
1762.7769 742.8031
1780.9011 740.0593
1787.9777 725.0695
1774.8813 716.37085
1767.3633 729.21844
1756.4155 716.46387
1739.8119 713.33044
1722.5546 709.88025
1710.9407 723.4733
1704.7292 707.32434
1699.1864 663.4667
1702.3853 642.07654
1714.4166 628.9307
1725.5171 614.96436
1736.3053 600.25037
1772.8082 536.1977
1812.5029 493.75696
1793.5619 484.04053
1797.5715 466.80856
1821.2513 461.412
1821.6254 443.17307
1802.042 450.4172
1803.5061 433.37598
1805.5648 415.7527
1805.8435 398.81635
1821.4203 403.68585
1818.8098 386.14532
1828.077 370.64645
1836.5188 386.14145
1846.1792 371.3825
1853.1936 355.09308
1836.9053 355.90952
1844.5176 341.09814
1853.0156 327.52902
1862.2085 340.87045
1870.2926 326.53708
1876.2618 310.42517
1877.4541 294.43817
1881.4126 276.54816
1880.439 259.65314
1881.86 240.08652
1865.422 232.89116
1877.033 221.85242
1861.5303 215.92255
1849.4921 226.71762
1846.8281 210.50816
1832.1549 206.56625
1843.2607 193.91528
1858.7961 198.91437
1874.2737 204.59708
1872.8193 187.4176
1854.9854 182.59225
1854.3594 166.81947
1869.076 171.38274
1867.3682 153.80283
1851.7015 149.7111
1861.2195 136.10016
1843.3147 135.0703
1852.4868 120.50823
1841.4436 107.00475
1830.5021 93.253784
1820.4432 80.56004
1812.0275 95.75326
1799.932 87.35141
1784.4314 88.61612
1793.8958 103.21868
1784.6372 117.78243
1777.1915 102.71214
1768.458 114.918816
1761.7935 128.82338
1776.3763 131.97464
1783.3301 146.93257
1791.2395 163.84628
1800.5902 149.79059
1792.3823 134.41296
1799.647 121.32546
1807.8698 109.81371
1808.5295 136.05405
1816.47 122.9539
1823.4995 108.747
1833.2778 121.76451
1825.9348 135.79497
1834.1937 149.10385
1840.4878 162.54462
1837.9901 177.70291
1818.7427 177.28445
1825.7076 163.84581
1817.6915 149.64285
1808.9443 163.8814
1800.1304 178.03392
1810.1257 190.62457
1827.706 190.2344
1817.7954 203.05284
1818.024 218.95978
1820.3699 234.94019
1824.5503 250.83255
1814.4344 263.4722
1805.0898 276.6395
1820.269 280.2292
1836.185 282.8432
1842.0336 297.73334
1847.4482 270.02597
1830.9055 267.15375
1840.339 254.22186
1836.7722 238.34967
1833.8755 222.72368
1852.4059 242.2305
1868.0732 249.20512
1855.575 257.2752
1865.4778 268.5694
1867.4222 283.97
1852.5178 284.30713
1860.1025 299.0183
1861.2428 313.851
1846.0901 312.33527
1829.5784 310.67868
1824.4869 295.9269
1807.7501 293.3686
1811.7854 308.95016
1802.683 323.4036
1819.3049 324.47653
1836.41 326.21826
1826.9006 340.3052
1809.5818 338.91162
1803.996 353.95996
1819.9011 355.07898
1810.017 369.7323
1764.3779 370.12964
1749.2263 359.19125
1745.0428 343.18768
1728.7999 335.72394
1730.6404 354.09906
1691.9672 354.05173
1675.8088 341.76575
1694.374 334.55566
1711.4739 328.32208
1723.153 312.3664
1699.2297 313.66318
1679.0933 320.34256
1604.4288 300.4574
1585.2222 296.5976
1592.2052 316.97345
1594.7013 336.60187
1576.4528 329.54156
1575.3564 312.2539
1566.1554 295.50073
1555.0175 278.40973
1546.9271 299.6878
1528.9512 303.69467
1499.0219 310.01562
1485.2109 320.23108
1515.2925 318.30093
1541.989 316.4341
1559.1539 311.98456
1557.7021 328.69894
1555.5342 350.7
1592.7822 444.28687
1579.5835 455.21417
1610.0806 450.78882
1617.852 470.62863
1631.9768 453.36176
1652.997 459.17612
1670.9791 455.22156
1662.059 473.9261
1639.0127 473.03998
1627.2178 489.26758
1595.7871 516.23035
1609.3461 530.4779
1622.2427 542.88586
1629.8673 527.032
1649.5383 529.48615
1678.0802 550.6381
1698.1033 554.219
1659.1173 546.8773
1639.825 546.1372
1625.457 560.2229
1606.3088 552.76117
1591.3914 534.33203
1575.9265 519.5574
1545.6318 522.8572
1528.22 525.8439
1559.6729 529.53345
1573.7947 540.0039
1587.4111 552.3395
1570.8169 571.3466
1551.2014 582.5609
1567.1306 592.7931
1583.7648 585.8077
1586.2794 603.8356
1601.6139 592.6714
1620.3855 597.2748
1634.1514 581.2977
1653.2074 583.05225
1640.2382 600.3055
1687.0624 651.3822
1678.2177 667.98926
1660.2203 666.48425
1648.7949 681.13513
1634.7396 693.1889
1627.9867 675.478
1614.6459 688.95624
1621.1036 705.78925
1606.1863 716.5842
1626.777 723.7108
1613.2588 733.2302
1605.8354 748.5011
1598.6581 765.56165
1579.7423 766.6304
1568.529 751.72437
1587.3196 749.0604
1595.0442 731.18115
1577.7108 732.9136
1565.7676 719.8424
1585.3865 713.89935
1600.4542 700.4697
1594.9448 682.9689
1582.6287 694.9577
1567.6089 703.87695
1565.8301 687.57513
1575.6599 674.82965
1554.4302 673.9094
1540.9624 660.823
1535.4545 677.792
1516.1399 700.05383
1533.0151 695.6798
1549.6075 691.58954
1549.6976 708.6257
1532.5682 714.0995
1515.739 718.8715
1514.1831 736.4971
1532.1135 733.6295
1547.2622 726.49316
1560.0148 737.3417
1547.3456 749.0473
1558.6224 765.9015
1538.9204 767.0246
1529.3745 783.93726
1528.3445 751.3461
1509.9148 754.1105
1496.3793 743.4675
1481.1868 751.6426
1479.8638 732.9678
1465.3591 723.0351
1449.2709 731.25134
1448.5195 712.1155
1449.8342 692.5207
1435.4598 661.4858
1450.883 672.3923
1467.1196 683.0976
1466.0973 703.20044
1482.3252 712.96234
1497.7573 724.8342
1499.408 705.8899
1483.1803 693.8171
1500.2932 686.7799
1517.7527 681.7901
1521.2781 663.59174
1502.725 668.1376
1484.8806 674.37286
1468.4832 662.81494
1485.5391 655.2345
1503.2794 649.25085
1486.4888 634.48834
1469.3373 621.02875
1469.5032 642.90173
1452.5748 651.64355
1436.3696 640.85
1363.46 660.2577
1353.7759 676.19434
1337.2654 676.84814
1323.7808 686.14075
1314.9114 701.16003
1305.4589 686.04553
1295.7356 701.1709
1303.2198 718.1644
1310.7726 736.46545
1294.633 733.9125
1286.0149 717.22156
1268.2367 718.123
1250.732 719.01526
1277.6865 734.24335
1287.241 750.4729
1270.5167 750.9299
1262.3904 767.4584
1280.2964 766.87964
1297.1606 767.0521
1313.4851 768.75354
1303.4033 751.2406
1319.1677 754.0857
1330.5559 768.28564
1338.0244 783.3844
1322.7866 783.9801
1307.1295 783.9743
1292.2634 783.36804
1277.6692 783.6567
1263.1122 783.80316
1248.4513 783.55273
1243.9863 767.81274
1252.6832 751.91956
1260.5056 735.03406
1242.7433 736.297
1234.5911 752.562
1225.6102 767.97626
1232.5549 783.65546
1216.0948 783.4358
1206.126 768.33545
1198.9104 783.3982
1182.6216 784.0031
1185.5527 768.1671
1181.8477 751.71967
1197.5194 753.1841
1205.3079 738.97656
1197.1068 724.86035
1184.6035 735.3178
1182.7953 715.8197
1184.1742 697.4413
1200.1097 708.6269
1206.8861 693.5984
1219.9923 706.8529
1214.3368 723.1198
1216.1948 753.3727
1224.4448 737.8463
1232.3406 721.2282
1239.6398 704.2658
1227.488 690.5748
1247.3452 686.1898
1266.4259 684.45966
1258.3474 702.05634
1276.8501 701.05585
1286.1738 684.26776
1298.6687 670.49835
1316.4528 670.16846
1330.9663 661.0857
1347.4475 659.0673
1376.9886 652.8375
1424.9708 606.5311
1438.1068 620.3467
1453.5776 630.8545
1450.8115 607.4271
1433.9121 591.20966
1419.501 576.5426
1384.92 488.25848
1394.3057 435.0383
1393.605 399.4077
1359.7832 389.52698
1334.4487 410.0107
1339.9641 428.40204
1320.2997 417.2835
1320.554 400.2376
1305.3407 408.91843
1303.205 391.6008
1323.8627 366.63312
1322.8334 383.70422
1338.7731 393.8757
1340.5658 377.22223
1342.7561 360.92444
1343.3823 343.0592
1328.1941 333.1748
1327.0525 349.88904
1306.0333 354.45117
1312.6631 337.9361
1309.226 322.12354
1326.4138 317.49805
1319.0045 303.62173
1329.4485 292.6208
1315.6053 282.83743
1318.8486 264.22137
1331.3696 275.3541
1344.1428 286.95804
1355.3483 298.55884
1339.7997 306.5185
1356.6863 315.38715
1343.103 324.73755
1358.7234 334.04218
1359.6074 352.31244
1361.4103 371.99374
1377.2805 362.24606
1378.9734 344.5244
1388.0055 329.054
1372.1611 324.3648
1386.8535 311.5754
1397.5092 300.3677
1372.5647 306.01086
1370.429 290.82373
1386.2461 290.47055
1403.9086 285.13663
1421.3105 284.65393
1431.3955 271.8398
1425.0326 256.14236
1417.6633 239.32236
1442.0446 256.81677
1451.6115 241.62895
1434.0299 240.98888
1442.4513 225.50566
1425.4503 224.66539
1433.7069 209.96674
1451.3593 209.16476
1459.1816 192.89543
1462.8108 176.33826
1454.3326 163.66786
1463.698 151.07242
1472.5896 165.04688
1488.0374 164.9398
1480.26 150.30435
1471.4801 136.8058
1479.9084 123.3376
1496.4573 122.674774
1488.7727 136.6459
1496.6558 150.66617
1505.759 136.33272
1512.4336 122.30803
1513.3395 148.98285
1524.2163 136.10541
1526.585 120.004425
1540.8965 121.46866
1549.762 106.91598
1534.8938 105.44841
1527.5548 91.29992
1544.978 90.638176
1561.7534 98.950424
1562.1443 83.7024
1548.937 74.48039
1533.1193 76.07037
1539.7128 60.525112
1555.0908 57.0356
1564.5519 68.36098
1578.9353 65.09653
1577.9042 78.46789
1577.7609 92.09652
1593.1128 99.01498
1593.1852 83.69421
1592.9658 69.35401
1607.7328 73.32393
1608.2355 88.46987
1623.2145 93.07556
1637.6287 97.133316
1651.6283 75.85799
1654.1692 60.11483
1638.2618 63.491116
1636.9703 81.861786
1623.055 76.803024
1604.6119 57.655464
1620.2662 61.661263
1632.6029 47.196514
1648.317 44.463955
1657.4879 28.848326
1664.3289 42.048775
1670.475 55.03173
1667.5121 71.53756
1667.4331 86.701385
1653.0359 91.90549
1649.0256 108.78045
1666.7969 103.349045
1683.834 79.88278
1682.6139 62.88502
1697.4009 70.19359
1711.5808 77.36457
1699.1243 87.81963
1683.5806 96.84628
1700.1716 105.27699
1716.9581 112.301254
1713.6661 95.12648
1726.5232 84.26598
1742.6692 90.00524
1728.7931 100.338425
1734.4105 116.73094
1743.9688 104.01105
1752.2754 116.01412
1759.0774 99.98276
1769.2826 89.143265
1755.7959 81.63511
1771.31 74.2527
1789.1426 73.89465
1805.8822 70.886185
1819.0193 64.76637
1796.5874 57.64653
1791.6456 43.047844
1789.0735 19.819073
1779.8274 31.410698
1773.359 45.09016
1780.8214 60.036404
1765.6196 59.32543
1754.6542 47.356987
1763.2461 31.829227
1772.1228 16.242302
1755.6517 16.06742
1747.5828 30.381893
1739.0803 44.14937
1737.874 57.94064
1751.9456 63.43489
1739.5288 74.49867
1724.4286 66.13394
1710.2671 59.612198
1705.9064 42.995403
1723.4867 48.62713
1730.6428 30.111961
1738.6162 15.7097435
1721.6948 15.284495
1714.0964 30.034803
1704.7239 15.962717
1687.934 15.959881
1694.4568 31.733139
1693.7648 52.200394
1681.6224 44.064144
1675.3018 29.30743
1669.3362 15.867785
1651.1658 15.966999
1634.1836 15.894024
1640.1265 31.040142
1624.4442 31.87891
1614.7892 45.707638
1608.5101 30.079565
1617.833 16.323439
1600.831 15.917754
1592.0266 28.143913
1598.0327 43.05919
1588.1011 54.732525
1581.2566 40.348312
1571.2607 53.188503
1563.3237 41.179447
1573.4113 27.71466
1583.1848 15.440593
1564.6859 15.277457
1546.2699 15.652671
1555.0464 27.82247
1546.5579 43.647797
1537.3284 29.310303
1527.6887 15.727045
1520.2031 31.056839
1530.2046 45.633797
1512.7852 46.0178
1501.5701 31.302053
1509.2681 16.624136
1488.8818 16.930706
1484.5 34.92369
1496.3213 48.326702
1505.9401 62.934555
1522.6064 61.347485
1516.5669 77.48457
1510.197 92.64293
1519.3181 106.078125
1503.5094 107.99761
1493.5128 93.19961
1499.0931 78.20834
1480.803 78.33241
1487.9016 63.91935
1479.9077 51.079586
1467.0681 43.772976
1470.501 24.802963
1452.3998 33.839798
1435.0432 42.78155
1415.7855 49.982857
1406.6044 66.573654
1413.4706 86.2144
1423.2981 71.41086
1435.904 59.9104
1452.632 53.472702
1468.3706 63.424526
1452.5565 70.34277
1439.783 77.38368
1448.5746 90.474236
1431.0186 90.11999
1421.1792 103.71569
1402.7438 101.499374
1412.3618 118.5878
1421.2594 134.07613
1429.049 119.03719
1438.2654 104.84718
1445.4854 121.027664
1454.3137 108.52467
1463.079 96.48393
1464.2339 80.68982
1478.0615 94.317314
1487.2899 108.58242
1471.6058 109.92973
1462.7517 123.09524
1454.5492 136.29996
1445.9852 149.35033
1438.1588 164.55643
1421.8672 164.65344
1405.2902 164.84592
1414.4468 180.09067
1430.7117 179.713
1447.0452 179.0632
1440.5068 194.0987
1423.9143 195.14915
1415.9514 209.87665
1406.4894 195.16124
1398.038 210.10185
1407.9982 224.54617
1400.3076 239.40422
1383.7751 241.47734
1395.1652 256.32324
1409.7129 253.60635
1412.064 269.59134
1393.6129 272.66077
1376.9031 275.22626
1379.7094 258.6644
1367.7063 245.51006
1371.9883 227.2168
1389.7723 225.29729
1380.4001 210.50943
1364.2905 208.46533
1371.7161 193.6753
1388.6759 194.96898
1397.0977 179.98802
1387.9512 164.56523
1379.6841 178.94102
1361.6412 178.05186
1353.6493 192.65788
1345.0111 207.11972
1356.4174 220.7998
1354.4404 235.76189
1351.1755 252.19426
1363.8462 263.21844
1359.5176 279.9585
1347.2102 269.11887
1334.7307 257.70233
1321.5564 246.06277
1337.9764 240.61613
1340.023 223.58731
1324.1017 228.34952
1327.3687 209.93942
1334.6904 193.01299
1342.8187 177.96585
1350.6443 163.09822
1369.4708 163.42583
1378.6458 149.86075
1359.0442 148.12585
1369.5283 134.67064
1374.1399 117.74252
1394.1055 117.78769
1388.1395 134.08583
1405.1127 134.1858
1396.3855 149.72308
1413.3854 149.53317
1429.613 149.52933
1437.2778 134.41893
" />
</g></g></svg>
